<svg version="1.0" xmlns="http://www.w3.org/2000/svg"
 width="300.000000pt" height="295.000000pt" viewBox="0 0 300.000000 295.000000"
 preserveAspectRatio="xMidYMid meet">
<metadata>
Created by potrace 1.10, written by Peter Selinger 2001-2011
</metadata>
<g transform="translate(0.000000,295.000000) scale(0.100000,-0.100000)"
fill="#000000" stroke="none">
<path d="M1265 2886 c-483 -92 -863 -381 -1065 -810 -110 -232 -157 -504 -131
-749 62 -571 438 -1039 983 -1221 153 -51 255 -66 451 -66 247 0 417 39 632
147 580 291 893 933 764 1566 -27 134 -50 200 -119 342 -193 397 -544 674
-984 777 -115 27 -421 35 -531 14z m408 -57 c275 -41 518 -152 722 -328 327
-283 506 -727 465 -1151 -47 -492 -331 -903 -775 -1123 -85 -42 -256 -95 -355
-112 -136 -22 -351 -20 -487 5 -187 34 -345 99 -514 212 -269 180 -472 463
-557 778 -52 195 -61 434 -23 619 120 575 557 996 1141 1096 94 16 289 18 383
4z"/>
<path d="M1370 2749 c0 -5 6 -9 14 -9 20 0 26 -23 26 -102 0 -61 -2 -70 -20
-75 -46 -12 -14 -23 69 -23 91 0 101 4 101 46 0 21 -27 17 -33 -6 -4 -15 -14
-20 -41 -20 -36 0 -36 0 -36 44 0 42 1 43 33 42 17 0 32 4 32 9 0 6 -15 9 -32
7 -32 -3 -33 -2 -33 38 0 33 3 40 19 40 30 0 51 -11 51 -26 0 -8 7 -14 16 -14
11 0 14 5 10 16 -3 9 -6 22 -6 30 0 11 -18 13 -85 13 -47 -1 -85 -6 -85 -10z"/>
<path d="M1194 2730 c-34 -13 -64 -59 -64 -97 0 -76 63 -132 127 -114 63 18
74 29 67 67 -4 22 -2 34 5 34 6 0 11 5 11 11 0 7 -14 8 -42 4 -58 -10 -61 -12
-37 -36 26 -26 21 -53 -12 -57 -32 -4 -58 25 -70 78 -11 46 -1 73 33 91 18 10
24 8 40 -11 15 -18 21 -20 33 -10 44 37 -25 67 -91 40z"/>
<path d="M1734 2728 c-3 -5 1 -15 9 -21 12 -10 11 -22 -10 -89 -20 -66 -27
-78 -46 -78 -33 0 -8 -15 59 -34 70 -21 101 -13 136 34 32 43 34 92 6 125 -27
30 -144 79 -154 63z m104 -54 c49 -34 8 -149 -53 -149 -17 0 -29 5 -29 10 5
33 46 155 52 155 4 0 18 -7 30 -16z"/>
<path d="M918 2636 c-51 -22 -61 -36 -28 -36 13 0 24 -10 30 -25 5 -14 19 -44
30 -67 22 -46 25 -68 10 -68 -5 0 -10 -4 -10 -10 0 -16 14 -12 94 24 l75 35
-10 30 c-14 39 -29 40 -29 2 0 -22 -6 -31 -30 -41 -17 -7 -32 -11 -33 -9 -2 2
-18 37 -35 78 -29 67 -31 75 -16 86 30 22 0 22 -48 1z"/>
<path d="M1996 2589 c-49 -39 -69 -105 -46 -150 14 -25 62 -49 97 -49 71 1
128 105 93 171 -13 23 -61 49 -93 49 -13 0 -36 -9 -51 -21z m102 -21 c35 -35
-20 -148 -73 -148 -45 0 -57 38 -29 93 33 64 72 85 102 55z"/>
<path d="M708 2513 c-40 -27 -51 -48 -20 -39 27 9 105 -114 96 -150 -6 -22 -4
-25 7 -18 34 20 139 96 139 99 0 2 -5 16 -12 30 -16 36 -39 33 -32 -4 5 -22 1
-32 -17 -45 -13 -9 -26 -16 -30 -16 -4 0 -26 29 -49 64 -29 46 -40 71 -35 85
8 27 -1 26 -47 -6z"/>
<path d="M1306 2455 c-38 -8 -104 -26 -148 -41 -65 -21 -78 -29 -73 -43 4 -9
10 -24 13 -34 3 -12 11 -17 21 -13 9 3 43 15 76 27 96 34 183 49 292 49 97 0
218 -17 274 -38 24 -9 27 -7 38 25 7 19 11 36 9 37 -1 1 -37 11 -78 21 -99 24
-328 30 -424 10z"/>
<path d="M2213 2444 c-14 -23 -15 -30 -3 -58 7 -17 13 -44 14 -61 1 -24 -4
-31 -21 -33 -28 -4 -48 30 -33 57 11 22 0 34 -24 25 -38 -14 -9 -82 44 -104
63 -26 108 26 76 88 -20 38 -21 78 -3 85 23 9 39 -9 35 -39 -2 -23 1 -29 17
-29 31 0 31 40 1 70 -34 34 -80 34 -103 -1z"/>
<path d="M575 2391 c-34 -15 -66 -57 -67 -88 -2 -62 58 -123 121 -123 46 0 95
48 95 92 0 76 -87 145 -149 119z m76 -70 c41 -41 50 -79 24 -101 -22 -18 -56
-5 -98 36 -38 38 -47 70 -25 92 23 23 59 13 99 -27z"/>
<path d="M1862 2367 c-16 -44 -16 -44 11 -51 44 -11 176 -96 237 -152 l61 -57
27 26 27 27 -50 45 c-58 52 -154 118 -238 164 -32 17 -59 31 -61 31 -1 0 -7
-15 -14 -33z"/>
<path d="M944 2307 c-87 -60 -157 -121 -205 -178 l-42 -50 26 -27 26 -26 22
30 c57 74 217 208 273 227 10 3 -20 67 -32 66 -4 0 -34 -19 -68 -42z"/>
<path d="M2381 2331 c-16 -12 -20 -20 -12 -25 7 -4 18 -3 25 3 11 9 18 8 30
-4 9 -9 16 -18 16 -19 0 -1 -30 -26 -66 -55 -51 -41 -68 -50 -79 -41 -28 23
-21 -7 11 -49 19 -24 35 -40 35 -35 1 5 2 16 3 25 1 9 30 40 64 69 51 42 66
50 73 39 12 -19 11 -33 -2 -46 -8 -8 -7 -13 1 -18 7 -4 21 1 32 13 l20 20 -58
71 c-32 39 -61 71 -64 71 -3 0 -16 -9 -29 -19z"/>
<path d="M396 2185 c-52 -57 -38 -128 34 -166 50 -27 86 -24 120 10 37 37 48
77 26 99 -15 15 -16 14 -16 -16 0 -44 -33 -76 -68 -67 -32 8 -91 51 -99 72 -9
23 11 48 38 48 17 0 24 6 24 20 0 30 -32 30 -59 0z"/>
<path d="M2555 2140 c5 -16 -6 -25 -66 -56 -57 -28 -77 -34 -90 -26 -28 18
-28 3 -2 -44 25 -44 46 -59 41 -27 -2 10 10 24 28 35 l32 19 20 -36 21 -35
-29 -15 c-18 -9 -40 -13 -55 -9 l-25 6 23 -46 c21 -44 50 -64 41 -28 -7 23
137 97 155 79 21 -21 21 1 -1 46 -23 47 -45 64 -35 28 3 -13 -5 -24 -25 -36
-16 -9 -30 -15 -32 -13 -16 24 -36 58 -36 62 0 3 14 13 31 22 26 13 33 13 40
3 18 -31 18 1 -1 44 -20 46 -48 67 -35 27z"/>
<path d="M1466 2108 c-3 -13 -6 -57 -6 -99 0 -86 16 -122 47 -103 15 10 18 26
18 115 l0 104 -26 3 c-20 2 -28 -2 -33 -20z"/>
<path d="M2242 2080 c-28 -23 -30 -16 29 -105 46 -69 101 -184 114 -237 7 -29
14 -32 53 -22 28 8 26 21 -23 141 -30 74 -131 243 -145 243 -3 -1 -16 -9 -28
-20z"/>
<path d="M1157 2043 c-15 -15 -4 -52 37 -123 44 -75 65 -92 91 -70 16 14 14
20 -43 123 -41 72 -64 92 -85 70z"/>
<path d="M1787 2028 c-92 -152 -101 -180 -60 -186 18 -3 30 8 57 51 59 91 71
123 56 142 -18 21 -37 19 -53 -7z"/>
<path d="M600 1918 c-43 -89 -107 -285 -96 -295 2 -2 20 -7 40 -10 33 -5 36
-4 36 18 0 48 42 175 87 262 25 48 44 89 42 90 -2 2 -16 11 -32 20 l-27 18
-50 -103z"/>
<path d="M920 1805 c-20 -24 -5 -41 77 -90 86 -50 118 -54 118 -16 0 20 -15
33 -80 72 -88 53 -97 56 -115 34z"/>
<path d="M1381 1804 c-194 -70 -293 -273 -231 -475 19 -64 30 -82 91 -144 80
-82 99 -122 99 -204 0 -53 3 -62 27 -81 25 -20 37 -21 141 -18 107 3 115 4
134 28 16 20 19 34 15 70 -10 79 9 124 78 193 35 36 74 89 91 123 26 53 29 69
29 159 0 89 -3 106 -28 156 -33 69 -98 135 -169 174 -45 25 -66 30 -143 32
-64 2 -103 -1 -134 -13z m269 -49 c49 -25 77 -47 108 -88 23 -29 42 -58 42
-64 0 -5 7 -25 16 -43 22 -42 25 -134 7 -185 -7 -22 -16 -48 -18 -57 -5 -25
-58 -97 -101 -138 -51 -50 -66 -85 -72 -165 -6 -100 -12 -104 -138 -103 -121
0 -116 -4 -133 107 -13 80 -29 110 -99 181 -70 70 -102 150 -103 260 0 64 9
100 42 156 39 65 51 79 112 119 107 71 222 78 337 20z"/>
<path d="M1428 1628 c-59 -87 -66 -97 -88 -144 -20 -41 -20 -42 -1 -100 11
-33 28 -79 40 -104 11 -25 21 -54 21 -66 0 -44 22 -57 95 -55 75 1 105 17 105
56 0 22 5 37 49 155 12 30 21 64 21 75 0 11 -18 49 -40 85 -22 36 -40 69 -40
74 0 5 -16 26 -35 47 -53 59 -42 24 30 -96 l65 -108 -38 -101 -38 -101 -76 0
-76 -1 -40 105 -41 104 24 31 c38 50 125 206 115 206 -5 0 -28 -28 -52 -62z
m150 -427 c3 -20 0 -21 -77 -21 -72 0 -81 2 -81 18 0 10 2 21 4 23 2 2 37 4
78 3 67 -1 73 -3 76 -23z"/>
<path d="M1490 1550 c0 -66 -5 -118 -12 -129 -15 -24 -4 -51 22 -51 24 0 38
26 21 43 -7 7 -11 53 -11 123 0 65 -4 115 -10 119 -6 4 -10 -33 -10 -105z"/>
<path d="M1970 1775 c-94 -57 -105 -68 -91 -93 6 -12 16 -22 21 -22 5 0 37 17
72 37 35 21 72 42 83 48 12 6 20 21 20 35 0 37 -39 35 -105 -5z"/>
<path d="M2439 1653 l-27 -4 6 -130 c3 -84 0 -156 -8 -200 -6 -39 -10 -72 -9
-73 2 -2 18 -6 35 -9 28 -5 33 -3 38 21 20 84 18 405 -2 401 -4 -1 -19 -4 -33
-6z"/>
<path d="M280 1555 c-10 -31 -16 -35 -46 -35 -41 0 -43 -12 -7 -38 24 -17 25
-22 15 -50 -13 -36 -4 -40 34 -16 23 15 26 15 43 0 28 -26 40 -20 34 17 -4 24
0 37 16 51 30 27 26 36 -14 36 -31 0 -36 3 -42 30 -8 44 -20 45 -33 5z"/>
<path d="M2677 1530 c-6 -28 -10 -30 -49 -30 l-42 0 31 -32 c27 -29 29 -37 21
-61 -14 -39 -3 -45 27 -17 l25 24 31 -23 c37 -28 43 -24 28 19 -11 31 -10 34
22 59 l34 26 -45 5 c-37 4 -45 9 -50 29 -8 36 -26 36 -33 1z"/>
<path d="M498 1443 c2 -100 34 -287 51 -306 4 -4 22 -2 40 4 24 9 30 15 25 28
-23 55 -46 180 -49 271 l-4 105 -33 3 -33 3 3 -108z"/>
<path d="M834 1486 c-3 -8 -4 -23 -2 -33 3 -16 15 -18 98 -18 52 -1 100 1 107
3 18 6 25 33 12 48 -17 20 -207 20 -215 0z"/>
<path d="M2040 1490 c-93 -5 -95 -5 -95 -30 0 -25 0 -25 106 -28 88 -2 108 0
112 13 8 19 -1 42 -16 47 -7 2 -55 1 -107 -2z"/>
<path d="M988 1213 c-61 -36 -78 -50 -78 -68 0 -40 28 -37 116 12 85 49 98 62
88 88 -10 24 -44 16 -126 -32z"/>
<path d="M1880 1245 c-20 -24 -5 -41 77 -90 83 -49 116 -54 121 -19 3 18 -13
32 -81 73 -47 28 -89 51 -95 51 -5 0 -15 -7 -22 -15z"/>
<path d="M2373 1172 c-38 -109 -131 -273 -177 -311 -15 -13 -15 -16 5 -38 13
-12 27 -23 33 -22 13 0 63 67 117 155 34 56 103 205 97 208 -2 1 -18 7 -36 13
-29 10 -34 9 -39 -5z"/>
<path d="M603 1078 c-13 -6 -23 -14 -23 -17 0 -4 20 -42 45 -85 44 -78 85
-133 159 -214 l39 -43 24 22 c12 13 23 25 23 29 0 3 -24 31 -54 61 -55 58
-112 140 -149 216 -22 45 -28 48 -64 31z"/>
<path d="M1380 848 c0 -15 81 -48 117 -48 39 0 104 27 110 45 2 6 -40 10 -112
10 -63 0 -115 -3 -115 -7z"/>
<path d="M2104 769 c-44 -49 -219 -155 -281 -171 -21 -6 -22 -9 -11 -40 6 -18
12 -35 14 -37 7 -9 220 112 287 164 l77 59 -22 23 c-27 28 -40 29 -64 2z"/>
<path d="M2302 727 c-26 -27 -28 -42 -7 -33 16 6 27 -14 41 -69 l6 -25 -43 19
c-36 15 -43 22 -41 41 3 21 1 20 -37 -11 -47 -39 -50 -46 -17 -46 31 0 116
-32 139 -52 12 -10 16 -23 12 -38 -8 -32 6 -29 49 10 42 39 45 50 13 42 -15
-4 -28 -1 -36 8 -16 20 -50 147 -44 164 8 21 -11 15 -35 -10z"/>
<path d="M902 705 c-12 -14 -22 -27 -22 -29 0 -2 42 -29 93 -60 91 -55 282
-133 290 -118 3 4 8 21 11 38 7 30 5 32 -27 38 -73 14 -283 116 -302 146 -10
16 -20 12 -43 -15z"/>
<path d="M651 644 c-46 -24 -94 -44 -107 -44 -31 0 -30 -6 4 -35 33 -30 45
-31 37 -6 -11 34 25 43 58 15 33 -28 30 -70 -4 -61 -28 8 -23 -10 14 -43 37
-34 51 -38 42 -11 -3 11 10 56 33 110 36 83 38 91 23 105 -15 13 -25 10 -100
-30z m51 -34 c-19 -45 -23 -47 -46 -21 -16 18 -15 20 16 40 46 29 49 27 30
-19z"/>
<path d="M2097 557 c-33 -19 -37 -26 -33 -52 3 -16 8 -50 11 -75 l7 -45 -54
53 -54 52 -34 -18 c-36 -18 -49 -39 -21 -34 22 3 85 -128 76 -157 -8 -25 -3
-26 35 -6 33 17 39 35 13 35 -12 0 -29 21 -48 57 -44 84 -43 84 33 9 38 -38
74 -66 79 -63 6 4 2 42 -8 94 -24 120 -19 124 28 26 19 -42 26 -66 19 -73 -20
-20 3 -21 43 0 43 21 54 39 24 36 -24 -1 -96 133 -81 151 21 25 2 30 -35 10z"/>
<path d="M1660 554 c-38 -10 -96 -14 -187 -12 l-131 4 -5 -31 c-3 -16 -3 -32
0 -35 12 -13 257 -11 334 4 45 8 83 17 85 19 8 8 -19 67 -29 66 -7 -1 -37 -8
-67 -15z"/>
<path d="M875 508 c-29 -23 -55 -74 -55 -109 0 -11 15 -36 34 -55 38 -38 84
-45 107 -17 13 15 11 16 -10 10 -30 -8 -67 7 -80 32 -23 43 46 149 87 134 23
-9 33 -25 26 -45 -4 -13 0 -18 16 -18 36 0 37 30 2 62 -40 35 -88 37 -127 6z"/>
<path d="M1134 349 c-31 -44 -63 -83 -70 -86 -23 -9 -16 -19 21 -30 33 -10 57
-2 35 12 -12 7 -13 25 -2 42 6 10 16 10 45 1 29 -9 37 -16 37 -35 0 -14 -6
-23 -15 -23 -32 0 -13 -18 31 -29 51 -13 64 -9 42 13 -10 9 -17 46 -21 107 -5
86 -14 108 -39 109 -4 0 -33 -36 -64 -81z m60 -8 l7 -43 -28 7 c-15 3 -29 8
-31 10 -1 1 8 18 20 38 13 19 23 34 24 33 1 0 4 -21 8 -45z"/>
<path d="M1728 411 c-69 -17 -97 -31 -61 -31 17 0 24 -13 41 -82 19 -76 20
-83 4 -94 -26 -19 -11 -24 38 -12 25 6 62 15 83 20 32 8 37 12 37 38 0 37 -17
39 -30 5 -5 -14 -16 -25 -24 -25 -8 0 -21 -2 -29 -6 -10 -4 -17 6 -25 35 l-10
41 34 6 c51 9 56 29 6 20 -40 -6 -42 -5 -50 26 -8 31 -7 34 21 42 24 8 32 6
42 -7 18 -25 27 -21 23 10 -4 34 -15 35 -100 14z"/>
<path d="M1370 381 c0 -6 7 -11 15 -11 12 0 15 -17 15 -90 0 -73 -3 -90 -15
-90 -8 0 -15 -4 -15 -10 0 -6 30 -10 70 -10 62 0 73 3 101 28 24 21 32 39 36
73 5 41 2 50 -24 79 -27 30 -35 33 -106 38 -54 3 -77 1 -77 -7z m137 -37 c22
-22 25 -32 20 -72 -3 -31 -12 -52 -27 -64 -43 -35 -50 -25 -50 72 0 101 9 112
57 64z"/>
</g>
</svg>